<?xml version="1.0" standalone="no"?>
<!DOCTYPE svg PUBLIC "-//W3C//DTD SVG 20010904//EN"
 "http://www.w3.org/TR/2001/REC-SVG-20010904/DTD/svg10.dtd">
<svg version="1.0" xmlns="http://www.w3.org/2000/svg"
 width="1000.000000pt" height="1000.000000pt" viewBox="0 0 1000.000000 1000.000000"
 preserveAspectRatio="xMidYMid meet">
<metadata>
Created by potrace 1.11, written by Peter Selinger 2001-2013
</metadata>
<g transform="translate(0.000000,1000.000000) scale(0.100000,-0.100000)"
fill="#000000" stroke="none">
<path d="M4690 9908 c-656 -38 -1300 -207 -1895 -497 -317 -154 -585 -318
-846 -517 -140 -107 -349 -284 -349 -296 0 -4 18 -8 39 -8 22 0 63 -5 93 -11
29 -6 78 -15 108 -21 745 -140 1361 -554 1697 -1138 27 -47 56 -101 65 -120
20 -45 48 -109 58 -135 4 -11 13 -33 19 -48 15 -38 56 -189 69 -257 26 -134
32 -198 32 -355 0 -175 -6 -229 -46 -409 -13 -60 -22 -111 -20 -114 3 -2 65
27 138 66 73 38 253 131 400 206 l267 137 28 -43 c16 -24 42 -65 58 -93 16
-27 37 -63 47 -80 44 -74 158 -319 158 -339 0 -7 3 -16 7 -19 10 -11 54 -135
91 -262 29 -100 49 -186 68 -295 8 -52 22 -99 29 -105 47 -38 47 -913 -1 -932
-7 -2 -18 -37 -24 -76 -54 -329 -190 -705 -356 -984 -21 -36 -21 -35 48 -156
26 -44 93 -167 189 -342 58 -108 72 -157 71 -263 0 -88 -5 -113 -38 -189 -18
-39 -76 -117 -112 -149 -48 -42 -132 -76 -227 -92 -81 -14 -107 -14 -201 -3
-95 12 -188 34 -249 60 -11 5 -38 17 -60 26 -99 43 -233 142 -308 228 -130
149 -181 255 -238 492 -6 28 -29 87 -49 131 -91 197 -221 332 -435 449 -169
93 -300 195 -401 313 -148 171 -232 336 -303 592 -9 30 -16 186 -22 475 -7
404 -15 549 -38 805 -14 146 -45 411 -55 465 -2 17 -10 66 -16 110 -6 44 -15
104 -20 133 -6 28 -14 77 -20 107 -46 254 -91 467 -129 608 -12 42 -30 110
-40 150 -40 150 -122 407 -179 562 -96 263 -330 765 -356 765 -12 0 -203 -206
-307 -330 -412 -494 -738 -1102 -922 -1720 -302 -1013 -267 -2107 98 -3085
368 -984 1031 -1815 1915 -2400 1485 -982 3408 -1105 5002 -319 231 114 359
188 558 319 1103 730 1867 1855 2120 3125 233 1169 42 2357 -546 3382 -434
756 -1081 1403 -1839 1839 -157 89 -486 248 -651 313 -689 271 -1430 389
-2174 344z m925 -2039 c104 -9 132 -13 288 -40 81 -14 153 -29 262 -58 65 -16
278 -81 300 -91 11 -4 52 -20 90 -35 84 -32 108 -43 251 -111 593 -282 1102
-749 1437 -1319 27 -46 160 -315 180 -365 10 -25 22 -54 27 -65 70 -170 131
-393 170 -630 6 -38 16 -86 21 -106 12 -46 12 -182 0 -177 -5 2 -59 57 -121
123 -399 425 -860 811 -1221 1023 -339 199 -611 292 -853 292 -111 0 -154 -9
-243 -52 -317 -152 -490 -709 -469 -1515 17 -637 56 -1052 122 -1290 5 -17 -3
-28 -38 -53 -57 -42 -119 -73 -198 -100 -53 -17 -89 -21 -195 -22 -153 0 -235
18 -375 83 l-70 32 0 198 c0 152 3 201 13 211 8 7 19 30 26 49 6 20 26 58 43
85 77 121 179 351 223 499 9 33 21 71 25 85 22 64 64 275 79 401 14 109 14
498 1 592 -24 163 -32 214 -40 252 -5 22 -14 65 -21 95 -6 30 -15 66 -19 80
-4 14 -13 43 -19 65 -24 88 -71 225 -107 315 -55 137 -172 370 -187 370 -7 1
-30 31 -51 68 -175 300 -467 631 -739 837 -58 44 -106 85 -106 91 -1 6 32 21
72 33 39 12 83 26 97 31 14 5 66 18 115 30 50 11 106 25 125 30 81 21 259 47
405 60 221 20 476 20 700 -1z m2107 -2710 c63 -9 118 -18 204 -35 12 -2 25
-11 28 -20 5 -14 -6 -15 -113 -9 -66 4 -180 4 -254 0 l-134 -7 -13 -65 c-8
-35 -17 -66 -22 -69 -4 -3 -8 -12 -8 -20 0 -22 -40 -103 -81 -165 -115 -171
-274 -285 -477 -340 -62 -17 -105 -21 -219 -21 l-142 0 -30 -77 c-52 -134 -64
-197 -65 -326 -1 -169 27 -257 121 -378 l46 -59 -7 -91 c-4 -51 -12 -97 -19
-103 -16 -15 -167 -74 -188 -74 -12 0 -37 53 -94 198 -42 108 -81 207 -86 220
-76 184 -99 255 -99 300 0 154 122 475 263 696 190 295 325 373 777 445 80 13
527 13 612 0z m-920 -1970 c98 -63 186 -183 227 -308 25 -77 28 -224 6 -316
-19 -81 -85 -211 -142 -282 -165 -204 -381 -330 -659 -382 -71 -13 -269 -15
-310 -2 -16 5 -54 14 -84 21 -30 7 -95 30 -143 52 -81 36 -95 40 -175 40 -112
0 -146 -10 -150 -44 -9 -72 289 -227 588 -307 25 -7 59 -16 75 -21 17 -5 49
-11 73 -15 24 -4 42 -12 42 -19 0 -17 -183 -108 -280 -139 -100 -33 -167 -48
-326 -76 -78 -14 -311 -14 -388 0 -34 6 -86 15 -116 20 -271 48 -482 143 -644
288 -74 68 -178 222 -157 235 4 3 33 -3 62 -14 91 -31 183 -43 303 -37 132 6
195 22 336 85 92 41 114 57 186 127 62 62 89 98 117 155 50 105 60 151 60 265
0 111 -19 184 -76 285 -33 58 -156 187 -198 207 -13 6 -54 26 -91 44 -37 17
-65 35 -62 40 7 12 944 12 944 0 0 -6 -33 -27 -72 -48 -101 -52 -233 -184
-275 -273 -40 -84 -49 -111 -63 -192 -14 -80 0 -184 31 -235 31 -50 97 -103
168 -136 58 -27 77 -30 157 -30 82 0 97 3 158 33 83 41 169 130 214 223 18 37
35 67 38 67 3 0 18 -8 32 -18 66 -45 172 -67 249 -52 135 26 247 112 308 236
40 82 42 90 56 171 16 94 -1 200 -47 302 -19 41 -34 75 -34 77 0 9 17 2 62
-27z"/>
<path d="M2943 5183 c-40 -2 -73 -7 -73 -11 0 -4 31 -43 68 -87 77 -92 419
-491 442 -517 8 -9 47 -55 85 -102 39 -46 75 -87 82 -90 6 -3 51 -8 100 -11
149 -10 256 -37 391 -101 241 -113 445 -340 530 -591 29 -84 52 -198 52 -257
0 -68 14 -48 34 49 10 44 22 99 27 122 5 23 9 97 9 165 -1 367 -139 687 -415
963 -155 155 -380 295 -594 369 -123 43 -148 44 -204 9 -108 -68 -190 -165
-218 -260 -17 -60 -36 -55 -44 12 -8 57 1 176 15 204 13 29 43 86 54 103 6 9
8 19 6 21 -8 7 -267 15 -347 10z"/>
</g>
</svg>
