<svg id="Layer_1" data-name="Layer 1" xmlns="http://www.w3.org/2000/svg" viewBox="0 0 1999.84 2000"><defs><style>.cls-1{fill:#fff;}</style></defs><title>sketchfab</title><g id="_Group_" data-name="&lt;Group&gt;"><path id="_Path_" data-name="&lt;Path&gt;" class="cls-1" d="M999.92,69C484.44,69,66.71,486.84,66.71,1002.24s417.73,933.29,933.21,933.29,933.29-417.89,933.29-933.29S1515.4,69,999.92,69Z" transform="translate(0)"/></g><g id="logo-circle"><path id="_Compound_Path_" data-name="&lt;Compound Path&gt;" d="M999.92,0C447.64,0,0,447.72,0,1000S447.64,2000,999.92,2000s999.92-447.72,999.92-1000S1552.28,0,999.92,0ZM913.05,1595.07,482,1346.21v-502L913.05,1077Zm76.79-636.19L479.8,688.5,989.84,394,1500,688.5Zm510.44,388.29-429.49,248V1079L1500.28,847Z" transform="translate(0)"/></g></svg>