<svg version="1.1" focusable="false" xmlns="http://www.w3.org/2000/svg" xmlns:xlink="http://www.w3.org/1999/xlink"
	 x="0px" y="0px" viewBox="0 0 22.7 22.7" style="enable-background:new 0 0 22.7 22.7;" xml:space="preserve">
<g>
	<path d="M22.7,4.3C21.9,4.7,21,4.9,20,5c1-0.6,1.7-1.5,2-2.6c-0.9,0.5-1.9,0.9-3,1.1c-0.7-0.8-1.9-1.4-3.3-1.4
		c-2.6,0-4.7,2.1-4.7,4.7c0,0.4,0,0.7,0.1,1.1C7.2,7.7,3.8,5.9,1.5,3C1.2,3.6,1,4.4,1,5.3c0,1.6,0.8,3,2.1,3.9
		C2.3,9.1,1.5,8.9,0.9,8.6v0.1c0,2.3,1.6,4.1,3.7,4.6c-0.4,0.1-0.8,0.2-1.2,0.2c-0.3,0-0.6,0-0.9-0.1c0.6,1.9,2.3,3.2,4.4,3.2
		c-1.6,1.3-3.6,2-5.8,2c-0.4,0-0.7,0-1.1-0.1c2.1,1.3,4.5,2.1,7.1,2.1c8.6,0,13.3-7.1,13.3-13.3c0-0.2,0-0.4,0-0.6
		C21.3,6,22.1,5.2,22.7,4.3L22.7,4.3z"/>
</g>
</svg>
