<?xml version="1.0" encoding="utf-8"?>
<!-- Generator: Adobe Illustrator 22.1.0, SVG Export Plug-In . SVG Version: 6.00 Build 0)  -->
<svg version="1.1" id="svg" xmlns="http://www.w3.org/2000/svg" xmlns:xlink="http://www.w3.org/1999/xlink" x="0px" y="0px"
	 viewBox="0 0 27.6 27.6" style="enable-background:new 0 0 27.6 27.6;" xml:space="preserve">
<g id="svgg">
	<path id="path0" d="M11.5,4.1C3.2,4.3,1.7,4.6,0.8,6.5c-0.9,1.8-1.1,9.9-0.4,13.6c0.3,1.6,1.3,2.6,2.8,2.9c3.3,0.7,17.7,0.7,21,0
		c1.5-0.3,2.5-1.3,2.8-2.9c0.6-2.9,0.6-9.6,0-12.5C26.8,6,25.8,5,24.3,4.6C22.6,4.3,16.2,4,11.5,4.1 M14.8,11.9
		c1.8,1,3.3,1.9,3.3,1.9c0,0-1.5,0.9-3.3,1.9c-1.8,1-3.4,2-3.5,2l-0.2,0.1v-4.1V9.7l0.2,0.1C11.4,9.9,13,10.8,14.8,11.9"/>
</g>
</svg>
